<svg xmlns="http://www.w3.org/2000/svg" xmlns:xlink="http://www.w3.org/1999/xlink" width="524.022" height="469.879" viewBox="0 0 524.022 469.879"><defs><clipPath id="a"><path d="M257.3,173.5H81.922v-61.24c0-32.894-19.371-61.332-57.577-84.525C36.2,26.883,45.207,26.5,52.7,26.5c31.775,0,83.625,6.639,127.835,21.469,35.018,11.747,76.761,32.437,76.761,64.29V173.5Z" transform="translate(-563 -4156)" fill="#ffcd43"/></clipPath><clipPath id="b"><path d="M232.955,147H57.577V85.76C57.577,52.866,38.205,24.428,0,1.235,11.854.383,20.862,0,28.359,0c31.775,0,83.625,6.639,127.835,21.469,35.018,11.747,76.761,32.437,76.761,64.29V147Z" transform="translate(-538.655 -4129.5)" fill="#ffcd43" stroke="#ffcd43" stroke-linecap="round" stroke-width="0.025"/></clipPath></defs><g transform="translate(2681.756 4605.5)"><g transform="translate(-1883 -258)" clip-path="url(#a)"><path d="M392.258,163.8a78.152,78.152,0,1,0-78.152-78.152A77.825,77.825,0,0,0,392.258,163.8Zm-208.4,0A78.152,78.152,0,1,0,105.7,85.652,77.825,77.825,0,0,0,183.854,163.8Zm0,52.1C123.156,215.9,1.5,246.383,1.5,307.081v65.126H366.208V307.081C366.208,246.383,244.552,215.9,183.854,215.9Zm208.4,0c-7.555,0-16.151.521-25.269,1.3,30.219,21.882,51.32,51.32,51.32,89.874v65.126h156.3V307.081C574.612,246.383,452.956,215.9,392.258,215.9Z" transform="translate(-800.256 -4355)" fill="#ffcd43"/></g><circle cx="60" cy="60" r="60" transform="translate(-2362 -4528)"/><path d="M249.177,364.708H0V299.58c0-14.232,6.715-27.64,19.957-39.853a123.25,123.25,0,0,1,21.736-15.669,206.721,206.721,0,0,1,26.722-12.827,330.924,330.924,0,0,1,59.839-17.116c19.3-3.682,38.508-5.711,54.1-5.711,17.168,0,38.282,2.405,59.452,6.772,23.673,4.883,45.959,11.9,64.45,20.3V307.63l-57.078,57.078Zm57.078,0h-3.338l3.338-3.338v3.337Zm-123.9-208.4a78.152,78.152,0,1,1,0-156.3,78.327,78.327,0,0,1,71.8,108.606,77.622,77.622,0,0,1-71.8,47.7Z" transform="translate(-2681.756 -4605.5)"/><g transform="translate(-1883 -258)" clip-path="url(#b)"><path d="M392.258,163.8a78.152,78.152,0,1,0-78.152-78.152A77.825,77.825,0,0,0,392.258,163.8Zm-208.4,0A78.152,78.152,0,1,0,105.7,85.652,77.825,77.825,0,0,0,183.854,163.8Zm0,52.1C123.156,215.9,1.5,246.383,1.5,307.081v65.126H366.208V307.081C366.208,246.383,244.552,215.9,183.854,215.9Zm208.4,0c-7.555,0-16.151.521-25.269,1.3,30.219,21.882,51.32,51.32,51.32,89.874v65.126h156.3V307.081C574.612,246.383,452.956,215.9,392.258,215.9Z" transform="translate(-800.256 -4355)" fill="#ffcd43" stroke="#ffcd43" stroke-linecap="round" stroke-width="0.025"/></g><path d="M100.689,148.933,39.964,88.208l60.726-60.726L82.208,9,3,88.208l79.208,79.208Zm68.647,0,60.726-60.726L169.336,27.482,187.818,9l79.208,79.208-79.208,79.208-18.482-18.482Z" transform="translate(-2424.759 -4303.035)"/></g></svg>